<mxfile host="app.diagrams.net" modified="2024-04-18T01:39:36.748Z" agent="Mozilla/5.0 (X11; Linux x86_64) AppleWebKit/537.36 (KHTML, like Gecko) Chrome/123.0.0.0 Safari/537.36" version="24.2.5" etag="Kv-jQN1GHxux9sZ43m-B" type="github">
  <diagram name="Page-1" id="c30xG0MomiJ2FhsdvwjQ">
    <mxGraphModel>
      <root>
        <mxCell id="0" />
        <mxCell id="1" parent="0" />
      </root>
    </mxGraphModel>
  </diagram>
</mxfile>
